<?xml version="1.0" encoding="UTF-8" standalone="no"?>
<!DOCTYPE svg PUBLIC "-//W3C//DTD SVG 1.1//EN"
 "http://www.w3.org/Graphics/SVG/1.1/DTD/svg11.dtd">
<!-- Generated by graphviz version 11.0.0 (20240428.1522)
 -->
<!-- Title: G Pages: 1 -->
<svg width="993pt" height="98pt"
 viewBox="0.00 0.00 993.00 98.00" xmlns="http://www.w3.org/2000/svg" xmlns:xlink="http://www.w3.org/1999/xlink">
<g id="graph0" class="graph" transform="scale(1 1) rotate(0) translate(4 94)">
<title>G</title>
<polygon fill="white" stroke="none" points="-4,4 -4,-94 989,-94 989,4 -4,4"/>
<!-- azurerm_application_insights.appinsight&#45;app -->
<g id="node1" class="node">
<title>azurerm_application_insights.appinsight&#45;app</title>
<polygon fill="none" stroke="black" points="750.75,-90 454.25,-90 454.25,-54 750.75,-54 750.75,-90"/>
<text text-anchor="middle" x="602.5" y="-67.33" font-family="sans-serif" font-size="14.00">azurerm_application_insights.appinsight&#45;app</text>
</g>
<!-- azurerm_resource_group.rg&#45;app -->
<g id="node3" class="node">
<title>azurerm_resource_group.rg&#45;app</title>
<polygon fill="none" stroke="black" points="418.25,-63 196.75,-63 196.75,-27 418.25,-27 418.25,-63"/>
<text text-anchor="middle" x="307.5" y="-40.33" font-family="sans-serif" font-size="14.00">azurerm_resource_group.rg&#45;app</text>
</g>
<!-- azurerm_application_insights.appinsight&#45;app&#45;&gt;azurerm_resource_group.rg&#45;app -->
<g id="edge1" class="edge">
<title>azurerm_application_insights.appinsight&#45;app&#45;&gt;azurerm_resource_group.rg&#45;app</title>
<path fill="none" stroke="black" d="M454.14,-58.42C446.01,-57.67 437.87,-56.92 429.84,-56.18"/>
<polygon fill="black" stroke="black" points="430.36,-52.71 420.08,-55.28 429.72,-59.69 430.36,-52.71"/>
</g>
<!-- azurerm_linux_web_app.app -->
<g id="node2" class="node">
<title>azurerm_linux_web_app.app</title>
<polygon fill="none" stroke="black" points="985,-36 786.75,-36 786.75,0 985,0 985,-36"/>
<text text-anchor="middle" x="885.88" y="-13.32" font-family="sans-serif" font-size="14.00">azurerm_linux_web_app.app</text>
</g>
<!-- azurerm_service_plan.plan&#45;app -->
<g id="node4" class="node">
<title>azurerm_service_plan.plan&#45;app</title>
<polygon fill="none" stroke="black" points="709.12,-36 495.88,-36 495.88,0 709.12,0 709.12,-36"/>
<text text-anchor="middle" x="602.5" y="-13.32" font-family="sans-serif" font-size="14.00">azurerm_service_plan.plan&#45;app</text>
</g>
<!-- azurerm_linux_web_app.app&#45;&gt;azurerm_service_plan.plan&#45;app -->
<g id="edge2" class="edge">
<title>azurerm_linux_web_app.app&#45;&gt;azurerm_service_plan.plan&#45;app</title>
<path fill="none" stroke="black" d="M786.46,-18C765.28,-18 742.68,-18 720.85,-18"/>
<polygon fill="black" stroke="black" points="721.03,-14.5 711.03,-18 721.03,-21.5 721.03,-14.5"/>
</g>
<!-- random_string.random -->
<g id="node5" class="node">
<title>random_string.random</title>
<polygon fill="none" stroke="black" points="160.75,-63 0,-63 0,-27 160.75,-27 160.75,-63"/>
<text text-anchor="middle" x="80.38" y="-40.33" font-family="sans-serif" font-size="14.00">random_string.random</text>
</g>
<!-- azurerm_resource_group.rg&#45;app&#45;&gt;random_string.random -->
<g id="edge3" class="edge">
<title>azurerm_resource_group.rg&#45;app&#45;&gt;random_string.random</title>
<path fill="none" stroke="black" d="M196.58,-45C188.55,-45 180.51,-45 172.61,-45"/>
<polygon fill="black" stroke="black" points="172.68,-41.5 162.68,-45 172.68,-48.5 172.68,-41.5"/>
</g>
<!-- azurerm_service_plan.plan&#45;app&#45;&gt;azurerm_resource_group.rg&#45;app -->
<g id="edge4" class="edge">
<title>azurerm_service_plan.plan&#45;app&#45;&gt;azurerm_resource_group.rg&#45;app</title>
<path fill="none" stroke="black" d="M495.72,-27.75C474.36,-29.72 451.75,-31.8 429.91,-33.81"/>
<polygon fill="black" stroke="black" points="429.71,-30.32 420.07,-34.72 430.35,-37.29 429.71,-30.32"/>
</g>
</g>
</svg>
